<?xml version="1.0" encoding="iso-8859-1"?>
<!-- Uploaded to: SVG Repo, www.svgrepo.com, Generator: SVG Repo Mixer Tools -->
<svg height="800px" width="800px" version="1.1" id="Layer_1" xmlns="http://www.w3.org/2000/svg" xmlns:xlink="http://www.w3.org/1999/xlink" 
	 viewBox="0 0 477.6 477.6" xml:space="preserve">
<ellipse style="fill:#738483;" cx="238.8" cy="309.6" rx="140" ry="120.8"/>
<path style="fill:#536060;" d="M378.8,309.6c0,66.4-62.4,120.8-140,120.8s-140-54.4-140-120.8S161.2,204,238.8,204
	S378.8,243.2,378.8,309.6z"/>
<path style="fill:#333D3D;" d="M238.8,204.8c77.6,0,140,39.2,140,105.6s-62.4,120.8-140,120.8"/>
<path style="fill:#EDAF14;" d="M378.8,356.8c0,66.4-62.4,120.8-140,120.8s-140-54.4-140-120.8s62.4-128,140-128
	S378.8,290.4,378.8,356.8z"/>
<ellipse style="fill:#EF6B11;" cx="238.8" cy="356.8" rx="140" ry="120.8"/>
<path style="fill:#E05C03;" d="M238.8,236c77.6,0,140,54.4,140,120.8s-62.4,120.8-140,120.8"/>
<g>
	<path style="fill:#D35907;" d="M238.8,255.2c73.6,0,133.6,48.8,139.2,111.2c0-3.2,0.8-6.4,0.8-9.6c0-66.4-62.4-120.8-140-120.8
		s-140,54.4-140,120.8c0,3.2,0,6.4,0.8,9.6C105.2,304,165.2,255.2,238.8,255.2z"/>
	<path style="fill:#D35907;" d="M294.8,321.6c0,16.8-13.6,30.4-30.4,30.4h-51.2c-16.8,0-30.4-13.6-30.4-30.4V62.4
		c0-16.8,13.6-30.4,30.4-30.4h51.2c16.8,0,30.4,13.6,30.4,30.4V321.6z"/>
</g>
<path style="fill:#EDAF14;" d="M294.8,291.2c0,16.8-15.2,28.8-32,28.8h-48c-16.8,0-30.4-12.8-30.4-29.6l-8-259.2
	C176.4,14.4,190,0,206.8,0h56c16.8,0,32,16,32,32.8V291.2z"/>
<path style="fill:#EF6B11;" d="M294.8,289.6c0,16.8-13.6,30.4-30.4,30.4h-51.2c-16.8,0-30.4-13.6-30.4-30.4V30.4
	c0-16.8,13.6-30.4,30.4-30.4h51.2c16.8,0,30.4,13.6,30.4,30.4V289.6z"/>
<path style="fill:#E05C03;" d="M264.4,0c16.8,0,30.4,13.6,30.4,30.4v260.8c0,16.8-15.2,28.8-32,28.8h-49.6
	c-16.8,0-30.4-13.6-30.4-30.4"/>
<ellipse style="fill:#5C6868;" cx="245.2" cy="417.6" rx="78.4" ry="51.2"/>
<path style="fill:#CC5605;" d="M187.6,468c16,5.6,33.6,8.8,51.2,8.8c24.8,0,48-6.4,68.8-16c9.6-16,16-28.8,16-44.8H166.8
	C166.8,432,174.8,450.4,187.6,468z"/>
<path style="fill:#536060;" d="M323.6,417.6c0,28-35.2,51.2-78.4,51.2s-78.4-22.4-78.4-51.2"/>
<path style="fill:#728483;" d="M245.2,387.2c37.6,0,69.6,17.6,76.8,40.8c0.8-3.2,1.6-6.4,1.6-10.4c0-28-35.2-51.2-78.4-51.2
	s-78.4,22.4-78.4,51.2c0,3.2,0.8,7.2,1.6,10.4C175.6,404.8,206.8,387.2,245.2,387.2z"/>
<ellipse style="fill:#333D3D;" cx="245.2" cy="435.2" rx="11.2" ry="5.6"/>
</svg>